<svg xmlns="http://www.w3.org/2000/svg" xmlns:xlink="http://www.w3.org/1999/xlink" width="500" zoomAndPan="magnify" viewBox="0 0 375 374.999991" height="500" preserveAspectRatio="xMidYMid meet" version="1.2"><defs><clipPath id="6f9d22db47"><path d="M 22 44 L 361.324219 44 L 361.324219 337.636719 L 22 337.636719 Z M 22 44 "/></clipPath></defs><g id="35844dc9ab"><g clip-rule="nonzero" clip-path="url(#6f9d22db47)"><path style=" stroke:none;fill-rule:nonzero;fill:#000000;fill-opacity:1;" d="M 191.628906 337.65625 C 190.125 337.65625 188.664062 337.054688 187.597656 335.988281 L 69.664062 217.882812 C 69.480469 217.699219 69.308594 217.503906 69.15625 217.300781 L 48.21875 196.332031 C 13.488281 161.550781 13.488281 104.957031 48.21875 70.175781 C 82.949219 35.398438 139.460938 35.398438 174.191406 70.175781 L 191.664062 87.675781 L 209.140625 70.175781 C 243.871094 35.398438 300.382812 35.394531 335.113281 70.175781 C 351.9375 87.027344 361.203125 109.425781 361.203125 133.253906 C 361.203125 157.082031 351.9375 179.484375 335.113281 196.332031 L 314.171875 217.304688 C 314.019531 217.503906 313.851562 217.699219 313.667969 217.882812 L 195.730469 335.988281 C 194.777344 336.941406 193.503906 337.523438 192.167969 337.632812 C 192.003906 337.648438 191.839844 337.65625 191.679688 337.65625 C 191.660156 337.65625 191.644531 337.65625 191.628906 337.65625 Z M 187.675781 335.988281 C 188.335938 336.652344 189.125 337.117188 189.964844 337.378906 C 189.109375 337.105469 188.316406 336.632812 187.675781 335.988281 Z M 195.652344 335.988281 C 195.246094 336.394531 194.78125 336.734375 194.277344 337 C 194.773438 336.742188 195.238281 336.402344 195.652344 335.988281 Z M 78.226562 210.402344 L 191.664062 324.003906 L 305.109375 210.394531 C 305.261719 210.195312 305.429688 210 305.613281 209.816406 L 327.09375 188.300781 C 341.777344 173.597656 349.863281 154.050781 349.863281 133.253906 C 349.863281 112.460938 341.777344 92.910156 327.09375 78.203125 C 296.785156 47.851562 247.464844 47.851562 217.15625 78.203125 L 195.675781 99.71875 C 194.609375 100.785156 193.167969 101.382812 191.664062 101.382812 C 190.164062 101.382812 188.71875 100.785156 187.65625 99.71875 L 166.175781 78.207031 C 135.863281 47.851562 86.546875 47.851562 56.234375 78.207031 C 25.925781 108.558594 25.925781 157.949219 56.234375 188.304688 L 77.71875 209.816406 C 77.902344 210.003906 78.074219 210.199219 78.226562 210.402344 Z M 78.226562 210.402344 "/></g></g></svg>