<svg xmlns="http://www.w3.org/2000/svg" xmlns:xlink="http://www.w3.org/1999/xlink" width="500" zoomAndPan="magnify" viewBox="0 0 375 374.999991" height="500" preserveAspectRatio="xMidYMid meet" version="1.2"><defs><clipPath id="070199ea03"><path d="M 15.910156 20.890625 L 359.410156 20.890625 L 359.410156 328.390625 L 15.910156 328.390625 Z M 15.910156 20.890625 "/></clipPath></defs><g id="061673746a"><rect x="0" width="375" y="0" height="374.999991" style="fill:#ffffff;fill-opacity:1;stroke:none;"/><rect x="0" width="375" y="0" height="374.999991" style="fill:#ffffff;fill-opacity:1;stroke:none;"/><g clip-rule="nonzero" clip-path="url(#070199ea03)"><path style=" stroke:none;fill-rule:nonzero;fill:#393536;fill-opacity:1;" d="M 59.570312 317.632812 L 315.660156 317.632812 L 315.660156 141.574219 L 332.433594 152.273438 L 344.304688 133.707031 L 189.34375 34.867188 L 185.859375 34.878906 L 108.785156 84.042969 L 108.785156 67.890625 L 68.980469 67.890625 L 68.980469 109.433594 L 30.925781 133.707031 L 42.796875 152.273438 L 59.570312 141.574219 Z M 326.492188 328.457031 L 48.734375 328.457031 L 48.734375 161.324219 L 39.492188 167.21875 L 15.960938 130.414062 L 58.148438 103.503906 L 58.148438 57.070312 L 119.621094 57.070312 L 119.621094 64.292969 L 183.890625 23.296875 L 187.617188 20.917969 L 191.355469 23.308594 L 359.265625 130.414062 L 335.734375 167.21875 L 326.492188 161.324219 L 326.492188 328.457031 "/></g></g></svg>